solid case_gameport_to_usb_cover
facet normal 0.0 0.0 -1.0
  outer loop
    vertex 397.5924212188711 247.0202375526969 -4.511946372076636e-14
    vertex 349.59242121887104 199.0202375526969 -4.511946372076636e-14
    vertex 349.59242121887104 247.0202375526969 -4.511946372076636e-14
  endloop
endfacet
facet normal 0.0 0.0 -1.0
  outer loop
    vertex 349.59242121887104 199.0202375526969 -4.511946372076636e-14
    vertex 397.5924212188711 247.0202375526969 -4.511946372076636e-14
    vertex 397.5924212188711 199.0202375526969 -4.511946372076636e-14
  endloop
endfacet
facet normal -0.0 -0.0 1.0
  outer loop
    vertex 349.59242121887104 199.0202375526969 1.9999999999999547
    vertex 352.59242121887104 202.02023755269687 1.9999999999999547
    vertex 349.59242121887104 247.0202375526969 1.9999999999999547
  endloop
endfacet
facet normal -0.0 -0.0 1.0
  outer loop
    vertex 352.59242121887104 202.02023755269687 1.9999999999999547
    vertex 349.59242121887104 199.0202375526969 1.9999999999999547
    vertex 397.5924212188711 199.0202375526969 1.9999999999999547
  endloop
endfacet
facet normal -0.0 -0.0 1.0
  outer loop
    vertex 352.59242121887104 202.02023755269687 1.9999999999999547
    vertex 397.5924212188711 199.0202375526969 1.9999999999999547
    vertex 394.5924212188711 202.02023755269687 1.9999999999999547
  endloop
endfacet
facet normal -0.0 -0.0 1.0
  outer loop
    vertex 394.5924212188711 202.02023755269687 1.9999999999999547
    vertex 397.5924212188711 199.0202375526969 1.9999999999999547
    vertex 394.5924212188711 244.0202375526969 1.9999999999999547
  endloop
endfacet
facet normal -0.0 -0.0 1.0
  outer loop
    vertex 349.59242121887104 247.0202375526969 1.9999999999999547
    vertex 352.59242121887104 244.0202375526969 1.9999999999999547
    vertex 397.5924212188711 247.0202375526969 1.9999999999999547
  endloop
endfacet
facet normal -0.0 -0.0 1.0
  outer loop
    vertex 352.59242121887104 244.0202375526969 1.9999999999999547
    vertex 349.59242121887104 247.0202375526969 1.9999999999999547
    vertex 352.59242121887104 202.02023755269687 1.9999999999999547
  endloop
endfacet
facet normal -0.0 -0.0 1.0
  outer loop
    vertex 397.5924212188711 247.0202375526969 1.9999999999999547
    vertex 352.59242121887104 244.0202375526969 1.9999999999999547
    vertex 394.5924212188711 244.0202375526969 1.9999999999999547
  endloop
endfacet
facet normal -0.0 -0.0 1.0
  outer loop
    vertex 397.5924212188711 247.0202375526969 1.9999999999999547
    vertex 394.5924212188711 244.0202375526969 1.9999999999999547
    vertex 397.5924212188711 199.0202375526969 1.9999999999999547
  endloop
endfacet
facet normal -0.0 -1.0 -0.0
  outer loop
    vertex 397.5924212188711 199.0202375526969 1.9999999999999547
    vertex 349.59242121887104 199.0202375526969 -4.511946372076636e-14
    vertex 397.5924212188711 199.0202375526969 -4.511946372076636e-14
  endloop
endfacet
facet normal -0.0 -1.0 -0.0
  outer loop
    vertex 349.59242121887104 199.0202375526969 -4.511946372076636e-14
    vertex 397.5924212188711 199.0202375526969 1.9999999999999547
    vertex 349.59242121887104 199.0202375526969 1.9999999999999547
  endloop
endfacet
facet normal -1.0 0.0 0.0
  outer loop
    vertex 349.59242121887104 247.0202375526969 1.9999999999999547
    vertex 349.59242121887104 199.0202375526969 -4.511946372076636e-14
    vertex 349.59242121887104 199.0202375526969 1.9999999999999547
  endloop
endfacet
facet normal -1.0 0.0 0.0
  outer loop
    vertex 349.59242121887104 199.0202375526969 -4.511946372076636e-14
    vertex 349.59242121887104 247.0202375526969 1.9999999999999547
    vertex 349.59242121887104 247.0202375526969 -4.511946372076636e-14
  endloop
endfacet
facet normal -0.0 1.0 0.0
  outer loop
    vertex 349.59242121887104 247.0202375526969 1.9999999999999547
    vertex 397.5924212188711 247.0202375526969 -4.511946372076636e-14
    vertex 349.59242121887104 247.0202375526969 -4.511946372076636e-14
  endloop
endfacet
facet normal -0.0 1.0 0.0
  outer loop
    vertex 397.5924212188711 247.0202375526969 -4.511946372076636e-14
    vertex 349.59242121887104 247.0202375526969 1.9999999999999547
    vertex 397.5924212188711 247.0202375526969 1.9999999999999547
  endloop
endfacet
facet normal 1.0 0.0 0.0
  outer loop
    vertex 397.5924212188711 247.0202375526969 -4.511946372076636e-14
    vertex 397.5924212188711 199.0202375526969 1.9999999999999547
    vertex 397.5924212188711 199.0202375526969 -4.511946372076636e-14
  endloop
endfacet
facet normal 1.0 0.0 0.0
  outer loop
    vertex 397.5924212188711 199.0202375526969 1.9999999999999547
    vertex 397.5924212188711 247.0202375526969 -4.511946372076636e-14
    vertex 397.5924212188711 247.0202375526969 1.9999999999999547
  endloop
endfacet
facet normal -0.0 -0.0 1.0
  outer loop
    vertex 363.5924212188711 202.02023755269687 5.999999999999955
    vertex 352.59242121887104 244.0202375526969 5.999999999999955
    vertex 352.59242121887104 202.02023755269687 5.999999999999955
  endloop
endfacet
facet normal -0.0 -0.0 1.0
  outer loop
    vertex 352.59242121887104 244.0202375526969 5.999999999999955
    vertex 363.5924212188711 202.02023755269687 5.999999999999955
    vertex 363.59242121887104 244.0202375526969 5.999999999999955
  endloop
endfacet
facet normal -0.0 -0.0 1.0
  outer loop
    vertex 363.59242121887104 244.0202375526969 5.999999999999955
    vertex 363.5924212188711 202.02023755269687 5.999999999999955
    vertex 383.5924212188711 244.0202375526969 5.999999999999955
  endloop
endfacet
facet normal -0.0 -0.0 1.0
  outer loop
    vertex 383.5924212188711 244.0202375526969 5.999999999999955
    vertex 363.5924212188711 202.02023755269687 5.999999999999955
    vertex 383.5924212188711 202.02023755269687 5.999999999999955
  endloop
endfacet
facet normal -0.0 -0.0 1.0
  outer loop
    vertex 383.5924212188711 244.0202375526969 5.999999999999955
    vertex 383.5924212188711 202.02023755269687 5.999999999999955
    vertex 394.5924212188711 202.02023755269687 5.999999999999955
  endloop
endfacet
facet normal -0.0 -0.0 1.0
  outer loop
    vertex 383.5924212188711 244.0202375526969 5.999999999999955
    vertex 394.5924212188711 202.02023755269687 5.999999999999955
    vertex 394.5924212188711 244.0202375526969 5.999999999999955
  endloop
endfacet
facet normal -1.0 -0.0 -0.0
  outer loop
    vertex 352.59242121887104 244.0202375526969 5.999999999999955
    vertex 352.59242121887104 202.02023755269687 1.9999999999999547
    vertex 352.59242121887104 202.02023755269687 5.999999999999955
  endloop
endfacet
facet normal -1.0 -0.0 -0.0
  outer loop
    vertex 352.59242121887104 202.02023755269687 1.9999999999999547
    vertex 352.59242121887104 244.0202375526969 5.999999999999955
    vertex 352.59242121887104 244.0202375526969 1.9999999999999547
  endloop
endfacet
facet normal 0.0 -1.0 0.0
  outer loop
    vertex 394.5924212188711 202.02023755269687 1.9999999999999547
    vertex 383.5924212188711 202.02023755269687 3.9999999999999547
    vertex 352.59242121887104 202.02023755269687 1.9999999999999547
  endloop
endfacet
facet normal 0.0 -1.0 0.0
  outer loop
    vertex 383.5924212188711 202.02023755269687 3.9999999999999547
    vertex 394.5924212188711 202.02023755269687 1.9999999999999547
    vertex 394.5924212188711 202.02023755269687 5.999999999999955
  endloop
endfacet
facet normal 0.0 -1.0 0.0
  outer loop
    vertex 383.5924212188711 202.02023755269687 3.9999999999999547
    vertex 394.5924212188711 202.02023755269687 5.999999999999955
    vertex 383.5924212188711 202.02023755269687 5.999999999999955
  endloop
endfacet
facet normal 0.0 -1.0 0.0
  outer loop
    vertex 352.59242121887104 202.02023755269687 1.9999999999999547
    vertex 363.5924212188711 202.02023755269687 3.9999999999999547
    vertex 352.59242121887104 202.02023755269687 5.999999999999955
  endloop
endfacet
facet normal 0.0 -1.0 0.0
  outer loop
    vertex 363.5924212188711 202.02023755269687 3.9999999999999547
    vertex 352.59242121887104 202.02023755269687 1.9999999999999547
    vertex 383.5924212188711 202.02023755269687 3.9999999999999547
  endloop
endfacet
facet normal 0.0 -1.0 0.0
  outer loop
    vertex 352.59242121887104 202.02023755269687 5.999999999999955
    vertex 363.5924212188711 202.02023755269687 3.9999999999999547
    vertex 363.5924212188711 202.02023755269687 5.999999999999955
  endloop
endfacet
facet normal 1.0 0.0 0.0
  outer loop
    vertex 394.5924212188711 244.0202375526969 1.9999999999999547
    vertex 394.5924212188711 202.02023755269687 5.999999999999955
    vertex 394.5924212188711 202.02023755269687 1.9999999999999547
  endloop
endfacet
facet normal 1.0 0.0 0.0
  outer loop
    vertex 394.5924212188711 202.02023755269687 5.999999999999955
    vertex 394.5924212188711 244.0202375526969 1.9999999999999547
    vertex 394.5924212188711 244.0202375526969 5.999999999999955
  endloop
endfacet
facet normal -1.0 0.0 0.0
  outer loop
    vertex 363.59242121887104 244.72023755269686 3.9999999999999547
    vertex 363.59242121887104 244.0202375526969 3.9999999999999547
    vertex 363.59242121887104 244.0202375526969 5.999999999999955
  endloop
endfacet
facet normal 1.0 -0.0 -0.0
  outer loop
    vertex 383.5924212188711 244.72023755269686 3.9999999999999547
    vertex 383.5924212188711 244.0202375526969 5.999999999999955
    vertex 383.5924212188711 244.0202375526969 3.9999999999999547
  endloop
endfacet
facet normal -0.0 0.943858356366021 0.33035042472809606
  outer loop
    vertex 363.59242121887104 244.0202375526969 5.999999999999955
    vertex 383.5924212188711 244.72023755269686 3.9999999999999547
    vertex 363.59242121887104 244.72023755269686 3.9999999999999547
  endloop
endfacet
facet normal -0.0 0.943858356366021 0.33035042472809606
  outer loop
    vertex 383.5924212188711 244.72023755269686 3.9999999999999547
    vertex 363.59242121887104 244.0202375526969 5.999999999999955
    vertex 383.5924212188711 244.0202375526969 5.999999999999955
  endloop
endfacet
facet normal 0.0 0.0 -1.0
  outer loop
    vertex 383.5924212188711 244.72023755269686 3.9999999999999547
    vertex 363.59242121887104 244.0202375526969 3.9999999999999547
    vertex 363.59242121887104 244.72023755269686 3.9999999999999547
  endloop
endfacet
facet normal 0.0 0.0 -1.0
  outer loop
    vertex 363.59242121887104 244.0202375526969 3.9999999999999547
    vertex 383.5924212188711 244.72023755269686 3.9999999999999547
    vertex 383.5924212188711 244.0202375526969 3.9999999999999547
  endloop
endfacet
facet normal -0.0 1.0 -0.0
  outer loop
    vertex 352.59242121887104 244.0202375526969 1.9999999999999547
    vertex 363.59242121887104 244.0202375526969 3.9999999999999547
    vertex 394.5924212188711 244.0202375526969 1.9999999999999547
  endloop
endfacet
facet normal -0.0 1.0 -0.0
  outer loop
    vertex 363.59242121887104 244.0202375526969 3.9999999999999547
    vertex 352.59242121887104 244.0202375526969 1.9999999999999547
    vertex 352.59242121887104 244.0202375526969 5.999999999999955
  endloop
endfacet
facet normal -0.0 1.0 -0.0
  outer loop
    vertex 363.59242121887104 244.0202375526969 3.9999999999999547
    vertex 352.59242121887104 244.0202375526969 5.999999999999955
    vertex 363.59242121887104 244.0202375526969 5.999999999999955
  endloop
endfacet
facet normal -0.0 1.0 -0.0
  outer loop
    vertex 394.5924212188711 244.0202375526969 1.9999999999999547
    vertex 383.5924212188711 244.0202375526969 3.9999999999999547
    vertex 394.5924212188711 244.0202375526969 5.999999999999955
  endloop
endfacet
facet normal -0.0 1.0 -0.0
  outer loop
    vertex 383.5924212188711 244.0202375526969 3.9999999999999547
    vertex 394.5924212188711 244.0202375526969 1.9999999999999547
    vertex 363.59242121887104 244.0202375526969 3.9999999999999547
  endloop
endfacet
facet normal -0.0 1.0 -0.0
  outer loop
    vertex 394.5924212188711 244.0202375526969 5.999999999999955
    vertex 383.5924212188711 244.0202375526969 3.9999999999999547
    vertex 383.5924212188711 244.0202375526969 5.999999999999955
  endloop
endfacet
facet normal 1.0 -0.0 -0.0
  outer loop
    vertex 383.5924212188711 202.02023755269687 5.999999999999955
    vertex 383.5924212188711 201.32023755269688 3.9999999999999547
    vertex 383.5924212188711 202.02023755269687 3.9999999999999547
  endloop
endfacet
facet normal -1.0 0.0 0.0
  outer loop
    vertex 363.5924212188711 202.02023755269687 3.9999999999999547
    vertex 363.5924212188711 201.32023755269688 3.9999999999999547
    vertex 363.5924212188711 202.02023755269687 5.999999999999955
  endloop
endfacet
facet normal -0.0 -0.0 -1.0
  outer loop
    vertex 383.5924212188711 202.02023755269687 3.9999999999999547
    vertex 363.5924212188711 201.32023755269688 3.9999999999999547
    vertex 363.5924212188711 202.02023755269687 3.9999999999999547
  endloop
endfacet
facet normal -0.0 -0.0 -1.0
  outer loop
    vertex 363.5924212188711 201.32023755269688 3.9999999999999547
    vertex 383.5924212188711 202.02023755269687 3.9999999999999547
    vertex 383.5924212188711 201.32023755269688 3.9999999999999547
  endloop
endfacet
facet normal 3.961282195472316e-19 -0.9438583563660177 0.33035042472810555
  outer loop
    vertex 383.5924212188711 202.02023755269687 5.999999999999955
    vertex 363.5924212188711 201.32023755269688 3.9999999999999547
    vertex 383.5924212188711 201.32023755269688 3.9999999999999547
  endloop
endfacet
facet normal 3.961282195472316e-19 -0.9438583563660177 0.33035042472810555
  outer loop
    vertex 363.5924212188711 201.32023755269688 3.9999999999999547
    vertex 383.5924212188711 202.02023755269687 5.999999999999955
    vertex 363.5924212188711 202.02023755269687 5.999999999999955
  endloop
endfacet
endsolid case_gameport_to_usb_cover
